<svg width="32" height="32" viewBox="0 0 32 32" fill="none" xmlns="http://www.w3.org/2000/svg">
<rect x="1" y="1" width="30" height="30" rx="9" stroke="#A65CF0" stroke-width="2"/>
<path d="M19.875 22H12.1406V20.6172L15.1016 17.6172C15.6745 17.0339 16.1458 16.5312 16.5156 16.1094C16.8854 15.6823 17.1589 15.2786 17.3359 14.8984C17.5182 14.5182 17.6094 14.1042 17.6094 13.6562C17.6094 13.1042 17.4505 12.6875 17.1328 12.4062C16.8151 12.1198 16.3958 11.9766 15.875 11.9766C15.3802 11.9766 14.9219 12.0755 14.5 12.2734C14.0833 12.4661 13.651 12.7422 13.2031 13.1016L12.1953 11.8906C12.513 11.6198 12.8516 11.3724 13.2109 11.1484C13.5755 10.9245 13.9818 10.7474 14.4297 10.6172C14.8776 10.4818 15.388 10.4141 15.9609 10.4141C16.6849 10.4141 17.3099 10.5443 17.8359 10.8047C18.362 11.0599 18.7656 11.4167 19.0469 11.875C19.3333 12.3333 19.4766 12.8672 19.4766 13.4766C19.4766 14.0911 19.3542 14.6589 19.1094 15.1797C18.8646 15.7005 18.5156 16.2161 18.0625 16.7266C17.6094 17.2318 17.0703 17.7812 16.4453 18.375L14.4688 20.3047V20.3906H19.875V22Z" fill="#A65CF0"/>
</svg>
