<svg width="32" height="32" viewBox="0 0 32 32" fill="none" xmlns="http://www.w3.org/2000/svg">
<rect x="1" y="1" width="30" height="30" rx="9" stroke="#A65CF0" stroke-width="2"/>
<path d="M19.4375 13.1875C19.4375 13.7031 19.3333 14.151 19.125 14.5312C18.9167 14.9115 18.6302 15.224 18.2656 15.4688C17.9062 15.7083 17.4896 15.8802 17.0156 15.9844V16.0391C17.9271 16.1536 18.6146 16.4401 19.0781 16.8984C19.5469 17.3568 19.7812 17.9635 19.7812 18.7188C19.7812 19.3802 19.6224 19.9714 19.3047 20.4922C18.987 21.0078 18.5 21.4141 17.8438 21.7109C17.1875 22.0078 16.3438 22.1562 15.3125 22.1562C14.6927 22.1562 14.1172 22.1068 13.5859 22.0078C13.0599 21.9089 12.5599 21.75 12.0859 21.5312V19.8984C12.5703 20.138 13.0859 20.3229 13.6328 20.4531C14.1797 20.5833 14.6979 20.6484 15.1875 20.6484C16.1406 20.6484 16.8203 20.4714 17.2266 20.1172C17.6328 19.7578 17.8359 19.263 17.8359 18.6328C17.8359 18.2266 17.7292 17.8932 17.5156 17.6328C17.3073 17.3724 16.9818 17.1771 16.5391 17.0469C16.1016 16.9167 15.5365 16.8516 14.8438 16.8516H13.8359V15.375H14.8516C15.513 15.375 16.0443 15.2969 16.4453 15.1406C16.8464 14.9792 17.1354 14.7578 17.3125 14.4766C17.4948 14.1953 17.5859 13.8672 17.5859 13.4922C17.5859 13.0026 17.4271 12.6224 17.1094 12.3516C16.7917 12.0755 16.3203 11.9375 15.6953 11.9375C15.3099 11.9375 14.9583 11.9818 14.6406 12.0703C14.3281 12.1589 14.0391 12.2708 13.7734 12.4062C13.5078 12.5417 13.2552 12.6875 13.0156 12.8438L12.1328 11.5703C12.5651 11.2474 13.0807 10.974 13.6797 10.75C14.2786 10.526 14.9766 10.4141 15.7734 10.4141C16.9453 10.4141 17.849 10.6667 18.4844 11.1719C19.1198 11.6719 19.4375 12.3438 19.4375 13.1875Z" fill="#A65CF0"/>
</svg>
